<?xml version="1.0" encoding="UTF-8"?>
<svg version="1.1" xmlns="http://www.w3.org/2000/svg" width="1024" height="1024">
<path d="M0 0 C1.21918625 -0.00426498 2.4383725 -0.00852997 3.69450378 -0.01292419 C5.03781131 -0.0125747 6.38111881 -0.01211317 7.72442627 -0.0115509 C9.14583932 -0.01454484 10.56725155 -0.01794791 11.98866272 -0.02172852 C15.84682741 -0.03055661 19.70496991 -0.03290635 23.56314373 -0.0335443 C25.98063829 -0.03425637 28.39812726 -0.03639385 30.81562042 -0.03904152 C39.27074031 -0.04829649 47.72584445 -0.0523769 56.18096924 -0.05158997 C64.02479038 -0.05099164 71.8685422 -0.06149461 79.71234584 -0.07733363 C86.47104611 -0.09048803 93.22972399 -0.09577046 99.98843694 -0.09513456 C104.01366565 -0.09488154 108.03883296 -0.09762167 112.06404877 -0.10831261 C149.57393524 -0.20084793 182.27516795 3.90850501 210.93243408 30.13371277 C212.15059814 31.21072449 212.15059814 31.21072449 213.39337158 32.30949402 C229.31097706 47.13800017 239.35941594 69.19432035 240.20977783 90.84855652 C240.76155647 114.74019636 234.90273444 134.69120995 221.03399658 154.35636902 C219.75683251 156.06853718 219.75683251 156.06853718 219.93243408 158.13371277 C220.56407471 158.45082214 221.19571533 158.76793152 221.84649658 159.09465027 C252.08540688 174.86768417 274.32867366 200.73650975 284.74493408 233.32121277 C293.60082684 261.70238444 290.36016605 293.8088063 276.88018799 320.19328308 C266.6486022 339.16386852 251.87477477 354.40359851 233.93243408 366.13371277 C232.97981689 366.77050964 232.02719971 367.40730652 231.04571533 368.06340027 C225.27577409 371.6847023 219.27359839 374.38713145 212.93243408 376.82121277 C212.24061035 377.09473572 211.54878662 377.36825867 210.83599854 377.65007019 C195.39278263 383.27985993 179.4265824 384.73098287 163.13214111 384.63542175 C161.24732055 384.63921818 159.3625028 384.644729 157.47769165 384.65179443 C152.42892511 384.66558045 147.38050569 384.6547059 142.33175898 384.63808322 C137.02285741 384.62409627 131.71397322 384.63070708 126.40505981 384.63421631 C117.51064535 384.63690445 108.61636695 384.62355244 99.72198486 384.6002655 C89.44696192 384.57354975 79.17216457 384.57195014 68.89711869 384.58365387 C58.97867397 384.59443017 49.06031065 384.58825312 39.14187241 384.57409859 C34.93227076 384.56834904 30.72272888 384.56841305 26.51312637 384.57316399 C21.56674925 384.57793561 16.62061972 384.56782446 11.6742897 384.54620934 C9.86106196 384.54064809 8.04781039 384.54017009 6.23458099 384.5451622 C3.75892667 384.55112375 1.28402749 384.5385946 -1.19155884 384.52139282 C-2.26547278 384.53040789 -2.26547278 384.53040789 -3.36108196 384.53960508 C-8.66699886 384.47260927 -12.72026847 383.21656563 -16.72239685 379.66531372 C-20.48713394 374.5862477 -20.8012174 370.21744978 -20.77459717 364.01261902 C-20.78971848 363.03622971 -20.80483978 362.05984039 -20.82041931 361.05386353 C-20.86315785 357.9344152 -20.87207969 354.81592319 -20.88006592 351.69621277 C-20.90324985 349.66688948 -20.92862315 347.63758997 -20.95623779 345.60832214 C-21.03145828 339.4501002 -21.05472895 333.29234031 -21.06756592 327.13371277 C-21.07064758 326.13963409 -21.07372925 325.14555542 -21.0769043 324.12135315 C-21.11893058 309.74851153 -21.07449573 295.37598474 -20.86004639 281.00456238 C-20.83160775 278.87346219 -20.81050906 276.74225203 -20.79656982 274.61100769 C-20.67828411 257.35312132 -19.63525432 240.32311356 -12.38006592 224.38371277 C-12.03902832 223.60769714 -11.69799072 222.83168152 -11.34661865 222.03215027 C-5.82150474 209.7959098 1.17487902 199.28109014 9.93243408 189.13371277 C10.63755127 188.20816589 11.34266846 187.28261902 12.06915283 186.32902527 C12.99147705 185.24234558 12.99147705 185.24234558 13.93243408 184.13371277 C14.59243408 184.13371277 15.25243408 184.13371277 15.93243408 184.13371277 C16.59243408 182.81371277 17.25243408 181.49371277 17.93243408 180.13371277 C18.59243408 180.13371277 19.25243408 180.13371277 19.93243408 180.13371277 C20.26243408 179.14371277 20.59243408 178.15371277 20.93243408 177.13371277 C23.20998885 174.87778415 25.81787527 173.00658015 28.36993408 171.07121277 C29.12983643 170.4948407 29.88973877 169.91846863 30.67266846 169.32463074 C58.94397678 148.36466774 90.68824355 140.44660073 125.3604126 139.10466003 C138.54683568 138.57840598 150.59319233 137.56044755 161.93243408 130.13371277 C162.81930908 129.55621277 163.70618408 128.97871277 164.61993408 128.38371277 C172.40247496 120.81151084 177.00250616 110.28488603 177.30743408 99.38371277 C177.22467935 97.96395184 177.10012239 96.54596277 176.93243408 95.13371277 C176.84993408 94.40797058 176.76743408 93.68222839 176.68243408 92.93449402 C175.60016181 86.4746814 172.54885481 81.5110085 168.93243408 76.13371277 C168.35493408 75.22621277 167.77743408 74.31871277 167.18243408 73.38371277 C153.52470365 59.72598233 133.86122692 60.97425588 116.00274658 60.96574402 C114.39759289 60.96252257 112.79243948 60.95915786 111.18728638 60.95565796 C107.84744586 60.94971491 104.50763106 60.94781343 101.16778564 60.94841003 C96.89763294 60.94851226 92.62764426 60.93477688 88.35753059 60.91763783 C85.05291997 60.90651007 81.74834921 60.90449094 78.44372177 60.90501976 C76.8689199 60.90384403 75.29411685 60.89944522 73.71933365 60.89168739 C71.52088084 60.88185637 69.32278759 60.88477588 67.12432861 60.89079285 C65.87700958 60.88936783 64.62969055 60.88794281 63.34457397 60.88647461 C59.20936771 61.18610499 55.59375344 61.94705608 52.18243408 64.38371277 C48.95358112 68.90410692 48.70420382 73.7240321 48.81988525 79.11369324 C48.84232521 80.5027598 48.86463261 81.89182851 48.88682556 83.28089905 C48.9097445 84.3730604 48.9097445 84.3730604 48.93312645 85.48728561 C49.00574684 89.37561677 49.01532572 93.26435203 49.03594971 97.15324402 C49.06553984 102.08754435 49.11364483 107.01947866 49.23052979 111.95256042 C49.32369824 115.95453258 49.3528372 119.95260459 49.3401432 123.95558548 C49.34692663 125.47319374 49.37682876 126.99089264 49.43099022 128.50754929 C49.59453719 133.2777638 49.5164645 137.56512367 47.93243408 142.13371277 C43.96201349 145.8512082 39.89667766 147.8922219 34.93243408 150.13371277 C33.66961042 150.90018072 32.42129239 151.69253786 31.20587158 152.53215027 C30.24938721 153.18441589 29.29290283 153.83668152 28.30743408 154.50871277 C20.97363847 159.64059396 14.44769558 165.4753883 8.24493408 171.93058777 C5.93243408 174.13371277 5.93243408 174.13371277 3.93243408 174.13371277 C3.68880127 174.69961121 3.44516846 175.26550964 3.19415283 175.84855652 C1.70015042 178.55441228 -0.1182254 180.46374772 -2.25506592 182.69621277 C-6.33692263 187.11986747 -9.51333274 191.70332591 -12.55975342 196.88371277 C-14.06756592 199.13371277 -14.06756592 199.13371277 -17.06756592 201.13371277 C-17.06756592 200.47371277 -17.06756592 199.81371277 -17.06756592 199.13371277 C-18.05756592 199.13371277 -19.04756592 199.13371277 -20.06756592 199.13371277 C-20.13763168 174.85558661 -20.1905422 150.5774756 -20.22300243 126.29926872 C-20.23847455 115.02660112 -20.25957072 103.75399632 -20.29388428 92.48136902 C-20.323776 82.65671437 -20.34313841 72.83210521 -20.3498314 63.00740635 C-20.35374403 57.80479053 -20.36294653 52.60230483 -20.38475609 47.39973068 C-20.40511758 42.50291491 -20.41140037 37.60628287 -20.40688896 32.70942879 C-20.40771431 30.91232492 -20.41368195 29.11521492 -20.42518234 27.31814766 C-20.44012127 24.86336734 -20.43651459 22.40927958 -20.42832947 19.95448303 C-20.43706799 19.24435275 -20.44580652 18.53422247 -20.45480984 17.80257308 C-20.40719415 12.51466296 -19.1305646 8.50672491 -15.63787842 4.48918152 C-10.51223693 0.34710907 -6.4262105 0.01018531 0 0 Z M117.92462158 214.26652527 C108.98246141 225.06679665 105.80489761 237.42357165 104.93243408 251.13371277 C104.87829346 251.96386902 104.82415283 252.79402527 104.76837158 253.64933777 C104.19718327 270.99269205 109.70047619 289.14930885 120.92852783 302.50871277 C132.60741712 314.83295958 147.48795681 321.34730915 164.40509033 322.33683777 C182.30075349 322.57051346 197.48232131 318.33382095 210.64727783 305.70402527 C221.61351026 293.369357 226.3495694 278.50210279 225.93243408 262.13371277 C223.9571019 244.84518594 216.67164291 229.16705515 203.93243408 217.13371277 C203.27243408 217.13371277 202.61243408 217.13371277 201.93243408 217.13371277 C201.93243408 216.47371277 201.93243408 215.81371277 201.93243408 215.13371277 C200.02688203 213.59170006 198.14151858 212.19669186 196.11993408 210.82121277 C195.23894043 210.21781067 195.23894043 210.21781067 194.34014893 209.60221863 C170.72980029 193.80997168 138.26284495 192.66210901 117.92462158 214.26652527 Z " fill="#EC4A3D" transform="translate(371.06756591796875,199.8662872314453)"/>
<path d="M0 0 C1.33872665 -0.00472824 1.33872665 -0.00472824 2.70449829 -0.009552 C4.16827408 -0.00651566 4.16827408 -0.00651566 5.66162109 -0.00341797 C6.66784515 -0.00437469 7.67406921 -0.00533142 8.71078491 -0.00631714 C10.85455385 -0.00699997 12.99832483 -0.00513859 15.14208984 -0.00097656 C18.37260822 0.00429267 21.60298253 -0.00087708 24.83349609 -0.00732422 C65.57650466 -0.02448881 65.57650466 -0.02448881 76.81005859 11.12939453 C78.50547221 13.41693769 79.57664492 15.52025023 80.81005859 18.12939453 C81.34566406 19.26054688 81.34566406 19.26054688 81.89208984 20.41455078 C83.9742857 26.57253428 84.03234692 35.02277185 81.62255859 41.12939453 C78.5320636 46.24469659 75.85929205 50.40104212 69.81005859 52.12939453 C69.81005859 52.78939453 69.81005859 53.44939453 69.81005859 54.12939453 C70.80005859 53.79939453 71.79005859 53.46939453 72.81005859 53.12939453 C72.81005859 53.78939453 72.81005859 54.44939453 72.81005859 55.12939453 C73.89287109 55.46970703 73.89287109 55.46970703 74.99755859 55.81689453 C81.15697115 58.69128706 84.7220262 64.27775339 87.81005859 70.12939453 C88.62255859 72.56689453 88.62255859 72.56689453 88.81005859 75.12939453 C88.86033203 75.76232422 88.91060547 76.39525391 88.96240234 77.04736328 C89.32733608 85.29486577 87.62084509 93.99845186 82.38818359 100.57080078 C69.45462446 113.34429111 52.18432772 113.13272287 35.18505859 113.25439453 C26.69338581 113.19147367 18.21060631 112.90446892 9.72412109 112.62158203 C8.27335885 112.57389146 6.82259389 112.5262834 5.37182617 112.47875977 C1.85120519 112.36325544 -1.66937781 112.24663643 -5.18994141 112.12939453 C-5.21327152 97.67406642 -5.23085472 83.21874122 -5.24175358 68.76339817 C-5.2469163 62.05197585 -5.25395853 55.34056521 -5.26538086 48.62915039 C-5.27620705 42.15825717 -5.28221767 35.68737611 -5.28481865 29.21647453 C-5.28667338 26.74160508 -5.29029491 24.26673633 -5.29567146 21.79187202 C-5.30287833 18.3386908 -5.3039325 14.88556052 -5.3034668 11.43237305 C-5.30706207 10.39803635 -5.31065735 9.36369965 -5.31436157 8.29801941 C-5.31298691 7.36267365 -5.31161224 6.42732788 -5.31019592 5.46363831 C-5.31111772 4.64600793 -5.31203951 3.82837755 -5.31298923 2.9859705 C-5.07596736 -0.59027393 -3.09620541 0.00312808 0 0 Z M19.81005859 21.12939453 C19.81005859 29.04939453 19.81005859 36.96939453 19.81005859 45.12939453 C23.83065806 45.1985386 27.84972869 45.2581859 31.87060547 45.29418945 C33.23623676 45.30920881 34.60182036 45.32963061 35.96728516 45.35571289 C37.93809765 45.3923959 39.90927268 45.40758004 41.88037109 45.42236328 C43.0638916 45.43807373 44.24741211 45.45378418 45.46679688 45.4699707 C50.00601836 45.00756279 53.38477956 43.55467357 56.62255859 40.31689453 C58.181764 37.44467404 58.68138146 35.41066135 58.81005859 32.12939453 C57.34472991 27.57916336 56.04970712 24.51419683 51.81005859 22.12939453 C48.39254206 20.99022235 45.77517922 21.01600973 42.17333984 21.03173828 C40.87460937 21.03496094 39.57587891 21.03818359 38.23779297 21.04150391 C36.86604751 21.04985922 35.49430272 21.05832416 34.12255859 21.06689453 C32.73909664 21.07191118 31.35563296 21.0764738 29.97216797 21.08056641 C26.58477964 21.09236915 23.1974137 21.11030487 19.81005859 21.12939453 Z M19.81005859 65.12939453 C19.81005859 74.03939453 19.81005859 82.94939453 19.81005859 92.12939453 C24.22193693 92.22173617 28.63040202 92.30120539 33.04248047 92.34912109 C34.53999249 92.36911372 36.03742768 92.39631752 37.53466797 92.43115234 C50.65535194 92.82902721 50.65535194 92.82902721 61.74755859 86.31689453 C63.98831896 81.70356436 64.16587798 78.2530347 62.62255859 73.37939453 C60.27993067 69.17882032 58.53825896 67.81518833 54.13378906 66.06738281 C50.41558214 65.01806953 47.30286556 64.90218125 43.44287109 64.93408203 C42.76328339 64.93691193 42.08369568 64.93974182 41.3835144 64.94265747 C39.23384252 64.95376489 37.08460246 64.97885062 34.93505859 65.00439453 C33.46891882 65.01443658 32.00277245 65.02356028 30.53662109 65.03173828 C26.96080402 65.05196349 23.38590906 65.0911274 19.81005859 65.12939453 Z " fill="#FEBA2B" transform="translate(517.18994140625,665.87060546875)"/>
<path d="M0 0 C0.83542328 0.01686859 1.67084656 0.03373718 2.53158569 0.05111694 C3.42946808 0.07501495 4.32735046 0.09891296 5.25244141 0.12353516 C6.19020416 0.14477448 7.12796692 0.16601379 8.09414673 0.18789673 C10.08300911 0.23414838 12.0718108 0.28307583 14.06054688 0.33447266 C17.05798898 0.41141646 20.05552783 0.47913543 23.05322266 0.54541016 C62.06427809 1.45565322 62.06427809 1.45565322 71.72900391 11.03759766 C77.68374528 18.39345465 79.17287145 24.50406277 79.06884766 33.90087891 C78.31724236 40.83810939 75.13126718 46.12617757 69.91650391 50.66259766 C68.86462891 51.44634766 67.81275391 52.23009766 66.72900391 53.03759766 C67.68088555 55.4108083 67.68088555 55.4108083 70.97900391 56.85009766 C77.97201193 60.75416962 81.99879721 66.37718635 84.31884766 73.96728516 C86.00021438 82.45418386 84.60449358 90.35838664 80.72900391 98.03759766 C78.1063192 101.77464195 75.44335278 104.21123496 71.60400391 106.66259766 C70.73517578 107.23236328 69.86634766 107.80212891 68.97119141 108.38916016 C59.73289863 113.08621986 50.97857974 113.45041392 40.75244141 113.33056641 C39.33184257 113.32495828 37.91123786 113.32069395 36.4906311 113.31770325 C32.785049 113.30634996 29.07983008 113.27696733 25.37438965 113.24359131 C21.57988393 113.21268279 17.78531847 113.1991539 13.99072266 113.18408203 C6.56998571 113.15208635 -0.85045395 113.10100839 -8.27099609 113.03759766 C-9.29957127 100.88956036 -9.41822925 88.80870387 -9.40380859 76.62353516 C-9.40448381 74.59428903 -9.40545564 72.56504298 -9.40670776 70.53579712 C-9.40817114 66.31519794 -9.40607208 62.09462011 -9.40136719 57.87402344 C-9.39563388 52.46833309 -9.39898011 47.06269201 -9.40493965 41.6570034 C-9.40855094 37.48088203 -9.40740468 33.30477239 -9.40481186 29.12865067 C-9.40414606 27.13436502 -9.40495886 25.14007831 -9.40729141 23.14579391 C-9.40983125 20.36800042 -9.40596016 17.59028749 -9.40039062 14.8125 C-9.40241486 13.99377411 -9.40443909 13.17504822 -9.40652466 12.33151245 C-9.39208579 8.44353732 -9.22347654 4.81637872 -8.27099609 1.03759766 C-5.42272783 0.21971549 -2.95842895 -0.06871911 0 0 Z M15.72900391 22.03759766 C15.72900391 29.95759766 15.72900391 37.87759766 15.72900391 46.03759766 C19.74960337 46.10674172 23.768674 46.16638903 27.78955078 46.20239258 C29.15518207 46.21741194 30.52076567 46.23783374 31.88623047 46.26391602 C33.85704296 46.30059902 35.82821799 46.31578317 37.79931641 46.33056641 C38.98283691 46.34627686 40.16635742 46.3619873 41.38574219 46.37817383 C45.90396356 45.91790518 49.26623236 44.4499288 52.54150391 41.28759766 C54.61698052 37.35511566 55.11039171 33.67756523 54.10400391 29.35009766 C51.80349675 25.48106289 48.96187102 23.44855336 44.72900391 22.03759766 C42.51810445 21.95400808 40.30474313 21.93028002 38.09228516 21.93994141 C36.79355469 21.94316406 35.49482422 21.94638672 34.15673828 21.94970703 C32.78499283 21.95806234 31.41324803 21.96652729 30.04150391 21.97509766 C28.65804195 21.9801143 27.27457828 21.98467692 25.89111328 21.98876953 C22.50372495 22.00057228 19.11635901 22.01850799 15.72900391 22.03759766 Z M15.72900391 66.03759766 C15.72900391 74.94759766 15.72900391 83.85759766 15.72900391 93.03759766 C20.15871852 93.10677192 24.58653143 93.16640894 29.01635742 93.20239258 C30.52065408 93.21740487 32.02490751 93.23782119 33.52905273 93.26391602 C35.70128086 93.30063581 37.87292642 93.31739927 40.04541016 93.33056641 C42.00136108 93.35413208 42.00136108 93.35413208 43.99682617 93.37817383 C49.28078582 92.89599134 53.17697956 91.50793651 57.10400391 87.78759766 C59.13450374 84.35136717 59.66012048 82.0328363 59.72900391 78.03759766 C58.61034407 74.50498765 57.57351248 71.94466242 55.04150391 69.22509766 C47.05980011 65.1263849 38.46393866 65.80137909 29.72900391 65.91259766 C28.36833341 65.92264788 27.00765573 65.93177012 25.64697266 65.93994141 C22.34090596 65.96338869 19.03493141 65.99925571 15.72900391 66.03759766 Z " fill="#EC493D" transform="translate(155.27099609375,664.96240234375)"/>
<path d="M0 0 C13.17809359 7.05667603 24.24665406 16.39904297 34.93359375 26.76953125 C35.52068115 27.33905518 36.10776855 27.9085791 36.71264648 28.49536133 C38 30 38 30 38 32 C38.66 32 39.32 32 40 32 C63.32305664 56.97029265 74.26704122 92.99259104 73.13623047 126.57275391 C72.17239402 143.74562487 69.09063833 163.01386913 59.3125 177.5 C55.68804768 179.8509961 52.18792889 179.75532289 48 179 C44.66399633 176.94161475 43.1737824 175.2606736 41 172 C41.09635018 166.21898912 42.43303827 161.55779927 44.375 156.125 C54.41485997 127.72352927 50.43678861 97.58973912 37.75 70.75 C34.43745381 64.39168986 30.42238693 58.68529335 26.13671875 52.9609375 C24.47502193 50.65825708 23.13996684 48.58224534 22 46 C21.34 46 20.68 46 20 46 C18.5625 44.50390625 18.5625 44.50390625 17 42.5625 C14.85474956 39.84811762 14.85474956 39.84811762 12 38 C12 37.34 12 36.68 12 36 C11.45085938 35.75507813 10.90171875 35.51015625 10.3359375 35.2578125 C7.50625345 33.73413647 5.15176735 31.86180063 2.625 29.875 C-7.06910806 22.48151901 -17.09742405 16.88227586 -28.67089844 13.07739258 C-32.67764825 11.71698246 -35.43924922 10.42707442 -38 7 C-39.12644999 2.44450372 -38.35206561 -1.28282932 -36.3125 -5.4375 C-26.95919663 -15.8019713 -9.95441688 -5.10291705 0 0 Z " fill="#FDBB2C" transform="translate(625,187)"/>
<path d="M0 0 C7.81940526 6.65630376 11.46132592 15.08105462 12.39356995 25.16696167 C12.49375125 27.43543478 12.54176054 29.69821781 12.56640625 31.96875 C12.59189796 33.22093323 12.59189796 33.22093323 12.61790466 34.49841309 C12.67046836 37.14470008 12.71096653 39.79098198 12.75 42.4375 C12.80910605 45.90634671 12.87361231 49.3750627 12.94140625 52.84375 C12.96528915 54.10783691 12.96528915 54.10783691 12.98965454 55.39746094 C13.16376886 63.59219147 13.63283873 71.76074079 14.1875 79.9375 C9.75845684 80.90319156 5.51902001 81.08703767 1 81.0625 C0.27619141 81.06636719 -0.44761719 81.07023438 -1.19335938 81.07421875 C-6.55902778 81.06423611 -6.55902778 81.06423611 -8.8125 79.9375 C-9.53943904 77.95861039 -10.21066251 75.95795442 -10.8125 73.9375 C-11.40417969 74.34742188 -11.99585938 74.75734375 -12.60546875 75.1796875 C-13.39566406 75.71851563 -14.18585938 76.25734375 -15 76.8125 C-15.77730469 77.34617187 -16.55460937 77.87984375 -17.35546875 78.4296875 C-26.36812098 83.96050429 -36.30662447 83.79354611 -46.375 81.8125 C-54.34978628 79.83743611 -60.29143856 75.89297914 -64.8125 68.9375 C-67.68329821 61.63001364 -68.20385084 53.58361798 -65.9375 46.015625 C-63.33241556 40.35984957 -59.97848892 36.38511787 -54.8125 32.9375 C-54.25175781 32.55980469 -53.69101562 32.18210937 -53.11328125 31.79296875 C-40.77718017 24.64819871 -25.5362544 25.56131587 -11.8125 25.9375 C-13.40954035 20.0665626 -13.40954035 20.0665626 -17.578125 15.96484375 C-25.88448633 13.32647052 -34.68033871 14.08112914 -42.546875 17.71484375 C-46.08323025 19.62325615 -49.49201168 21.67437388 -52.8125 23.9375 C-53.9379191 22.33362733 -55.06281972 20.72939084 -56.1875 19.125 C-56.81398438 18.23167969 -57.44046875 17.33835937 -58.0859375 16.41796875 C-61.82027778 11.05302288 -61.82027778 11.05302288 -61.6796875 8.96484375 C-58.79955218 2.23155442 -49.67589626 -1.34211159 -43.390625 -4.1171875 C-30.41876107 -8.87353761 -11.37267153 -7.95711671 0 0 Z M-41.4375 47.625 C-43.46180754 51.02951723 -43.74567851 54.08616155 -42.8125 57.9375 C-39.86673584 61.04249466 -37.15068168 62.69768649 -32.83203125 63.140625 C-25.88038446 63.2882706 -20.76389423 61.86232233 -14.9375 58.0625 C-11.47878788 54.60378788 -10.8676171 52.03984208 -10.625 47.1875 C-10.44242257 44.08584208 -10.44242257 44.08584208 -11.8125 42.9375 C-22.07657895 42.33577271 -32.4829254 41.86848776 -41.4375 47.625 Z " fill="#EC493D" transform="translate(316.8125,698.0625)"/>
<path d="M0 0 C0.92683594 0.474375 1.85367188 0.94875 2.80859375 1.4375 C13.7620922 7.6202074 19.6738209 17.06036289 23 29 C25.69891129 40.24546373 23.92541896 52.54045919 18.0625 62.5 C17.06110983 64.01304938 16.04293663 65.51528324 15 67 C14.4225 67.886875 13.845 68.77375 13.25 69.6875 C3.38400507 79.82755034 -9.40133813 84.85072669 -23.375 85.3125 C-35.95397177 85.0286304 -47.97770038 80.56778089 -57.1875 71.93359375 C-66.35834717 62.15003911 -69.6563073 50.83243295 -69.46606445 37.64819336 C-68.95718708 25.25853372 -64.38547514 16.12498161 -56 7 C-42.04318947 -5.67762659 -16.76046561 -9.40152996 0 0 Z M-40.9375 24.375 C-45.0541818 30.94749542 -45.94353907 37.95721976 -44.53515625 45.484375 C-42.62290203 52.95235008 -39.47499552 57.80153344 -32.9375 61.9375 C-26.32173911 64.28977054 -17.90497923 64.27972493 -11.5 61.375 C-5.92061734 58.01562434 -2.53206654 53.23656611 -0.50390625 47.12890625 C1.46180949 38.82413821 -0.46891569 30.55595177 -4.5625 23.1875 C-10.91874889 17.48317407 -17.57061604 15.11381786 -26.1015625 15.51953125 C-32.32816353 16.55170366 -37.06977074 19.39417424 -40.9375 24.375 Z " fill="#EC4A3C" transform="translate(473,696)"/>
<path d="M0 0 C8.25 0 16.5 0 25 0 C25.02578125 3.97289062 25.0515625 7.94578125 25.078125 12.0390625 C25.11654934 15.89151055 25.16170863 19.74382495 25.20751953 23.59619141 C25.23792944 26.27145209 25.25694044 28.94610553 25.27099609 31.62158203 C25.29242903 35.46950921 25.33908517 39.31643524 25.390625 43.1640625 C25.39185364 44.35802643 25.39308228 45.55199036 25.39434814 46.78213501 C25.50565648 53.10834795 25.63491876 57.24693382 30 62 C35.00799063 65.57713616 40.06212017 65.69635992 46 65 C50.53397781 63.81273446 54.15256372 61.76268366 57 58 C60.12354888 51.30140875 60.40075614 45.60728713 60.29296875 38.28125 C60.28660149 36.633526 60.28660149 36.633526 60.28010559 34.95251465 C60.26340661 31.4680864 60.22576996 27.98425139 60.1875 24.5 C60.17244185 22.12761256 60.15875543 19.75521599 60.14648438 17.3828125 C60.1160927 11.5881331 60.05735248 5.79472515 60 0 C68.25 0 76.5 0 85 0 C85.33 28.05 85.66 56.1 86 85 C77.75 85 69.5 85 61 85 C60.505 81.04 60.505 81.04 60 77 C59.5153125 77.47050781 59.030625 77.94101562 58.53125 78.42578125 C49.86016228 86.47988773 41.84503791 88.2055538 30 88 C19.94971503 86.66314499 11.64599853 82.94812317 5.25 74.953125 C-0.67409519 65.69672627 -0.14260715 54.39173462 -0.09765625 43.84765625 C-0.0962413 42.59238632 -0.09482635 41.33711639 -0.09336853 40.04380798 C-0.08873576 36.72794649 -0.07977139 33.41215548 -0.06866455 30.09631348 C-0.05838292 26.7041892 -0.05380149 23.3120574 -0.04882812 19.91992188 C-0.0386783 13.27990859 -0.0190988 6.64001766 0 0 Z " fill="#FEBC2B" transform="translate(620,693)"/>
<path d="M0 0 C1.55061189 18.47333916 1.55061189 18.47333916 -3.9375 25 C-5.60288347 26.68876639 -7.29057909 28.35582416 -9 30 C-10.4820066 31.77213487 -11.94041704 33.56426057 -13.375 35.375 C-17.53243342 40.45952658 -21.77014661 45.4711596 -26.03125 50.46875 C-30.0694308 55.2720598 -34.02627826 60.14322898 -38 65 C-18.2 65.495 -18.2 65.495 2 66 C3.1482685 68.296537 3.11561175 69.58313167 3.09765625 72.1328125 C3.09282227 73.34130859 3.09282227 73.34130859 3.08789062 74.57421875 C3.07532227 75.83685547 3.07532227 75.83685547 3.0625 77.125 C3.05798828 77.97449219 3.05347656 78.82398438 3.04882812 79.69921875 C3.03702874 81.79950909 3.01909306 83.8997633 3 86 C0.13453266 87.43273367 -2.31251154 87.12983642 -5.515625 87.1328125 C-6.52320107 87.13479141 -6.52320107 87.13479141 -7.5511322 87.1368103 C-9.78413285 87.13874833 -12.01701172 87.13232621 -14.25 87.125 C-15.01245026 87.12411377 -15.77490051 87.12322754 -16.56045532 87.12231445 C-35.04796538 87.09731411 -53.5227902 86.57832605 -72 86 C-71.96678332 83.13109789 -71.89939425 80.26971466 -71.8125 77.40234375 C-71.80669922 76.59776733 -71.80089844 75.79319092 -71.79492188 74.9642334 C-71.53642189 67.91113324 -69.30766776 64.89373434 -64.35522461 59.90600586 C-63.89639893 59.51292236 -63.43757324 59.11983887 -62.96484375 58.71484375 C-60.18947613 56.23040632 -57.87754631 53.55172827 -55.5625 50.625 C-51.64483705 45.75951537 -47.60929996 41.01151133 -43.51196289 36.29736328 C-39.19079142 31.29889919 -35.13973535 26.17466919 -31 21 C-50.305 20.505 -50.305 20.505 -70 20 C-70 13.73 -70 7.46 -70 1 C-61.02078898 0.86953965 -52.04157709 0.73914001 -43.06236362 0.60884857 C-38.89338183 0.54835277 -34.72440044 0.4878299 -30.55541992 0.42724609 C-26.5354261 0.36882835 -22.51543127 0.31048049 -18.49543571 0.25218201 C-16.95837302 0.22987887 -15.42131069 0.20755014 -13.88424873 0.18519592 C-11.73867004 0.15399605 -9.59309007 0.1228855 -7.44750977 0.09179688 C-6.22395279 0.07403198 -5.00039581 0.05626709 -3.73976135 0.03796387 C-1 0 -1 0 0 0 Z " fill="#FEBC2B" transform="translate(874,692)"/>
<path d="M0 0 C22.77 0 45.54 0 69 0 C69 21.13524663 69 21.13524663 64.83496094 25.44433594 C63.95759277 26.21438965 63.95759277 26.21438965 63.0625 27 C61.85938177 28.21225749 60.65756447 29.42580745 59.45703125 30.640625 C58.56878662 31.49237305 58.56878662 31.49237305 57.66259766 32.36132812 C55.32240668 34.66784234 53.29346103 37.18024795 51.25 39.75 C50.19425781 41.05130859 50.19425781 41.05130859 49.1171875 42.37890625 C48.41851563 43.24386719 47.71984375 44.10882812 47 45 C45.46019854 46.89734857 43.91852231 48.79317716 42.375 50.6875 C41.70210937 51.51636719 41.02921875 52.34523438 40.3359375 53.19921875 C37.28791667 56.85378554 34.13369947 60.41862917 31 64 C50.305 64.495 50.305 64.495 70 65 C71.125 76.25 71.125 76.25 70.5625 80.625 C70.46066406 81.46289062 70.35882812 82.30078125 70.25390625 83.1640625 C70.17011719 83.76992188 70.08632813 84.37578125 70 85 C60.49933813 85.15358747 50.9986121 85.30176918 41.49775791 85.4429636 C37.08659293 85.50869071 32.67547361 85.57631138 28.2644043 85.64819336 C24.0110492 85.71743668 19.75764616 85.78179253 15.50416374 85.84269524 C13.8777591 85.86685423 12.25138008 85.89280327 10.62503242 85.92053413 C8.3549615 85.95894151 6.08488456 85.99110193 3.81469727 86.02172852 C2.52008072 86.04171402 1.22546417 86.06169952 -0.10838318 86.08229065 C-3 86 -3 86 -4 85 C-4.83399098 78.90242444 -5.55821843 72.60902624 -2.30859375 67.16796875 C0.02737251 64.65325029 2.48671039 62.33651389 5 60 C6.46734569 58.27494844 7.90467616 56.52396118 9.3125 54.75 C12.75046125 50.50626658 16.25295043 46.32902043 19.8125 42.1875 C20.31088379 41.60742188 20.80926758 41.02734375 21.32275391 40.4296875 C23.44258005 37.96524574 25.56520353 35.50324364 27.69042969 33.04345703 C28.81677898 31.7396868 29.9423663 30.43525785 31.06713867 29.13012695 C32.12797662 27.89922247 33.19057386 26.6698315 34.25512695 25.44213867 C36.90656654 22.41471593 36.90656654 22.41471593 39 19 C25.47 19 11.94 19 -2 19 C-1.34 18.67 -0.68 18.34 0 18 C0 12.06 0 6.12 0 0 Z " fill="#FEBC2B" transform="translate(722,693)"/>
<path d="M0 0 C0.98484375 -0.00128906 1.9696875 -0.00257813 2.984375 -0.00390625 C4.02078125 -0.00003906 5.0571875 0.00382813 6.125 0.0078125 C7.67960937 0.00201172 7.67960937 0.00201172 9.265625 -0.00390625 C10.25046875 -0.00261719 11.2353125 -0.00132812 12.25 0 C13.16007812 0.00112793 14.07015625 0.00225586 15.0078125 0.00341797 C17.125 0.1328125 17.125 0.1328125 18.125 1.1328125 C18.21169432 2.6215311 18.23203494 4.1142575 18.22265625 5.60546875 C18.22015869 6.41508057 18.21766113 7.22469238 18.21508789 8.05883789 C18.20598389 9.09387451 18.19687988 10.12891113 18.1875 11.1953125 C18.166875 14.4746875 18.14625 17.7540625 18.125 21.1328125 C25.385 21.1328125 32.645 21.1328125 40.125 21.1328125 C39.795 27.4028125 39.465 33.6728125 39.125 40.1328125 C32.195 40.1328125 25.265 40.1328125 18.125 40.1328125 C18.19898925 46.04174698 18.28180875 51.94916449 18.38745117 57.85742188 C18.42069726 59.86710749 18.44873019 61.87688641 18.47143555 63.88671875 C18.50498722 66.77644597 18.55730337 69.66531843 18.61328125 72.5546875 C18.61967117 73.45274109 18.6260611 74.35079468 18.63264465 75.27606201 C18.7365991 80.19201511 18.7365991 80.19201511 20.51733398 84.70263672 C22.69741111 86.64202803 23.98796356 86.60643797 26.875 86.5078125 C27.69484375 86.49492188 28.5146875 86.48203125 29.359375 86.46875 C32.74717866 86.05723713 35.86831746 85.13548569 39.125 84.1328125 C39.96161862 86.9235332 40.79442737 89.71529262 41.625 92.5078125 C41.86347656 93.301875 42.10195313 94.0959375 42.34765625 94.9140625 C42.68603516 96.05488281 42.68603516 96.05488281 43.03125 97.21875 C43.24072266 97.9204834 43.45019531 98.6222168 43.66601562 99.34521484 C44.125 101.1328125 44.125 101.1328125 44.125 103.1328125 C32.64758617 108.73709925 22.23240032 110.81880074 9.78515625 107.12890625 C2.51395597 104.40621011 -0.55400873 100.78068194 -3.9296875 93.828125 C-6.210227 87.32576032 -6.01058263 80.63102428 -5.97265625 73.82421875 C-5.9712413 72.85749741 -5.96982635 71.89077606 -5.96836853 70.89476013 C-5.96280221 67.82824518 -5.95025599 64.76180512 -5.9375 61.6953125 C-5.93248065 59.60742293 -5.9279185 57.51953222 -5.92382812 55.43164062 C-5.91284382 50.3320027 -5.89560255 45.23242027 -5.875 40.1328125 C-12.31 40.6278125 -12.31 40.6278125 -18.875 41.1328125 C-19.06880249 37.98724894 -19.25533742 34.84155255 -19.4375 31.6953125 C-19.49357422 30.79748047 -19.54964844 29.89964844 -19.60742188 28.97460938 C-19.65576172 28.12060547 -19.70410156 27.26660156 -19.75390625 26.38671875 C-19.8010376 25.59595947 -19.84816895 24.8052002 -19.89672852 23.99047852 C-19.875 22.1328125 -19.875 22.1328125 -18.875 21.1328125 C-16.68860547 21.06022304 -14.49999611 21.04907467 -12.3125 21.0703125 C-10.51619141 21.08384766 -10.51619141 21.08384766 -8.68359375 21.09765625 C-7.75675781 21.10925781 -6.82992188 21.12085938 -5.875 21.1328125 C-5.88023682 20.53218994 -5.88547363 19.93156738 -5.89086914 19.31274414 C-5.91158014 16.60694412 -5.92464125 13.90116073 -5.9375 11.1953125 C-5.94587891 10.24978516 -5.95425781 9.30425781 -5.96289062 8.33007812 C-5.96611328 7.43095703 -5.96933594 6.53183594 -5.97265625 5.60546875 C-5.97789307 4.77281494 -5.98312988 3.94016113 -5.98852539 3.08227539 C-5.76156426 -0.81511083 -3.33246081 0.00413017 0 0 Z " fill="#EC493C" transform="translate(355.875,671.8671875)"/>
<path d="M0 0 C5.20200683 2.85863333 7.95704842 6.18206551 11.0625 11.0625 C11.4958667 11.73297363 11.9292334 12.40344727 12.37573242 13.09423828 C26.00895806 34.57767503 30.0047299 59.29406965 24.91796875 84.125 C22.08381174 96.08876066 22.08381174 96.08876066 18.11328125 99.73046875 C14.8503986 101.69061082 11.6456867 101.64376809 8 101 C2.33823529 98.01470588 2.33823529 98.01470588 1 94 C0.77322012 89.22628357 1.29521207 85.23219829 2.5 80.625 C6.97534378 60.41100706 2.65264042 41.54678396 -8 24 C-8.88402319 22.76489841 -9.77986428 21.5381673 -10.6875 20.3203125 C-13.58589719 16.35874292 -14.46467782 12.9148616 -14 8 C-12.39419955 4.728925 -11.05370218 2.77271493 -8.125 0.625 C-5.18891172 -0.23855538 -3.05485074 -0.36658209 0 0 Z " fill="#FDBA2D" transform="translate(633,242)"/>
<path d="M0 0 C2.85898801 2.62346497 4.83909977 5.79621132 7 9 C8.63227883 11.17905204 10.27530245 13.34423924 11.9375 15.5 C12.3593457 16.0566333 12.78119141 16.6132666 13.21582031 17.18676758 C15.8397575 20.61973529 18.62195167 23.76033395 21.625 26.875 C24.12857636 29.67491805 24.97406003 30.90596761 26 34.625 C24.54404559 39.53884613 21.47569107 42.53762147 17 45 C13.47882039 45.49387974 11.75441959 45.51766025 8.796875 43.48828125 C2.70434316 37.01205943 -2.78006803 30.18500881 -8 23 C-8.40234863 22.45311523 -8.80469727 21.90623047 -9.21923828 21.34277344 C-10.37259613 19.76240365 -11.49930618 18.16269262 -12.625 16.5625 C-13.27726562 15.63566406 -13.92953125 14.70882812 -14.6015625 13.75390625 C-16.24771835 10.51217475 -16.54429782 8.58741744 -16 5 C-12.2470656 0.70808034 -5.51140737 -2.06817518 0 0 Z " fill="#FDBE27" transform="translate(441,511)"/>
<path d="M0 0 C3.27065449 2.65188202 4.81624022 4.62180169 5.375 8.8125 C4.87307535 13.07885954 3.09005957 14.09395368 0 17 C-1.55342595 18.60682239 -3.10416226 20.21624893 -4.65234375 21.828125 C-6.41372076 23.63574972 -8.1754494 25.44303187 -9.9375 27.25 C-10.81857422 28.17296875 -11.69964844 29.0959375 -12.60742188 30.046875 C-13.46787109 30.9234375 -14.32832031 31.8 -15.21484375 32.703125 C-15.98948975 33.50395508 -16.76413574 34.30478516 -17.56225586 35.12988281 C-20.44498711 37.34137218 -22.40113428 37.78674074 -26 38 C-28.3359375 36.99609375 -28.3359375 36.99609375 -30.375 35.4375 C-31.06335938 34.94121094 -31.75171875 34.44492187 -32.4609375 33.93359375 C-34 32 -34 32 -34.5390625 29.1640625 C-33.83290583 25.01922984 -31.85321403 22.83804222 -29 19.9375 C-28.47325684 19.38747314 -27.94651367 18.83744629 -27.40380859 18.27075195 C-23.03507308 13.82200066 -18.40135293 9.69202359 -13.625 5.6875 C-12.95984375 5.11829834 -12.2946875 4.54909668 -11.609375 3.96264648 C-7.73058396 0.82037789 -5.20836477 -0.92271177 0 0 Z " fill="#FEBE27" transform="translate(462,385)"/>
<path d="M0 0 C2.71484375 -0.3984375 2.71484375 -0.3984375 5.9375 -0.375 C6.99839844 -0.38273437 8.05929687 -0.39046875 9.15234375 -0.3984375 C12 0 12 0 13.64868164 1.09155273 C16.56985782 5.21708737 15.51654143 11.32549671 15.50097656 16.2512207 C15.50000456 18.4272915 15.54161368 20.59982955 15.5859375 22.77539062 C15.5911452 24.161451 15.59383268 25.5475236 15.59375 26.93359375 C15.60083984 28.19228271 15.60792969 29.45097168 15.61523438 30.74780273 C15 34 15 34 12.62573242 36.41064453 C9.73083961 38.16292274 8.16338648 38.5135413 4.8125 38.4375 C3.95269531 38.43621094 3.09289062 38.43492187 2.20703125 38.43359375 C1.47871094 38.29050781 0.75039063 38.14742188 0 38 C-2.49095696 34.26356456 -2.25791662 32.27455265 -2.265625 27.8125 C-2.26753845 27.11358643 -2.2694519 26.41467285 -2.27142334 25.69458008 C-2.27278283 24.21858357 -2.26910282 22.74257502 -2.26074219 21.26660156 C-2.25003882 19.00819016 -2.2606449 16.75057418 -2.2734375 14.4921875 C-2.27211586 13.05728991 -2.26955338 11.62239282 -2.265625 10.1875 C-2.26224121 8.22876953 -2.26224121 8.22876953 -2.25878906 6.23046875 C-2 3 -2 3 0 0 Z " fill="#FEC027" transform="translate(415,447)"/>
<path d="M0 0 C0.33 0 0.66 0 1 0 C1.09471858 9.0719352 1.14516104 17.98185679 0 27 C-0.33 27 -0.66 27 -1 27 C-1.19397476 25.02145742 -1.38001321 23.0421352 -1.5625 21.0625 C-1.66691406 19.96035156 -1.77132812 18.85820312 -1.87890625 17.72265625 C-1.91886719 16.82417969 -1.95882812 15.92570312 -2 15 C-1.67 14.67 -1.34 14.34 -1 14 C-0.76472227 11.65012738 -0.58613583 9.29443961 -0.4375 6.9375 C-0.35371094 5.64714844 -0.26992188 4.35679687 -0.18359375 3.02734375 C-0.12300781 2.02832031 -0.06242188 1.02929688 0 0 Z " fill="#F3B22E" transform="translate(697,299)"/>
<path d="M0 0 C0.33 0 0.66 0 1 0 C1 1.65 1 3.3 1 5 C0.67 5 0.34 5 0 5 C0 3.35 0 1.7 0 0 Z " fill="#EB4E40" transform="translate(402,739)"/>
<path d="" fill="#ED5042" transform="translate(0,0)"/>
<path d="M0 0 C2 1 2 1 2 1 Z " fill="#E24F3D" transform="translate(441,781)"/>
<path d="M0 0 C2 1 2 1 2 1 Z " fill="#FDBE2D" transform="translate(838,756)"/>
<path d="M0 0 C2 1 2 1 2 1 Z " fill="#EB4B3F" transform="translate(196,756)"/>
<path d="" fill="#EE4E3E" transform="translate(0,0)"/>
<path d="M0 0 C2 1 2 1 2 1 Z " fill="#EA5240" transform="translate(545,520)"/>
<path d="" fill="#51281E" transform="translate(0,0)"/>
<path d="" fill="#E3573C" transform="translate(0,0)"/>
<path d="" fill="#DD4B3C" transform="translate(0,0)"/>
<path d="" fill="#DC493C" transform="translate(0,0)"/>
<path d="" fill="#E14B3D" transform="translate(0,0)"/>
<path d="" fill="#EF743F" transform="translate(0,0)"/>
<path d="" fill="#FBBE2D" transform="translate(0,0)"/>
<path d="" fill="#FEC12C" transform="translate(0,0)"/>
<path d="" fill="#F3B62E" transform="translate(0,0)"/>
<path d="" fill="#FCBE2D" transform="translate(0,0)"/>
<path d="" fill="#FEBB2D" transform="translate(0,0)"/>
<path d="" fill="#EE4C41" transform="translate(0,0)"/>
<path d="" fill="#EC4E3E" transform="translate(0,0)"/>
<path d="" fill="#EC4F40" transform="translate(0,0)"/>
<path d="" fill="#FCB82C" transform="translate(0,0)"/>
<path d="" fill="#EC533F" transform="translate(0,0)"/>
<path d="" fill="#EB4F40" transform="translate(0,0)"/>
<path d="" fill="#EC4D3E" transform="translate(0,0)"/>
<path d="" fill="#FCBE2A" transform="translate(0,0)"/>
<path d="" fill="#FFBC2D" transform="translate(0,0)"/>
<path d="" fill="#EC4D3F" transform="translate(0,0)"/>
<path d="" fill="#FEBB2F" transform="translate(0,0)"/>
<path d="" fill="#FFBA2D" transform="translate(0,0)"/>
<path d="" fill="#EC5140" transform="translate(0,0)"/>
<path d="" fill="#EA4E3F" transform="translate(0,0)"/>
<path d="" fill="#EE4E40" transform="translate(0,0)"/>
<path d="" fill="#EE5040" transform="translate(0,0)"/>
<path d="" fill="#F1523F" transform="translate(0,0)"/>
<path d="" fill="#EC4F3F" transform="translate(0,0)"/>
<path d="" fill="#F04F3D" transform="translate(0,0)"/>
<path d="" fill="#E84E41" transform="translate(0,0)"/>
<path d="" fill="#FEBB2D" transform="translate(0,0)"/>
<path d="" fill="#FEBB30" transform="translate(0,0)"/>
<path d="" fill="#EE4E42" transform="translate(0,0)"/>
<path d="" fill="#FFBC30" transform="translate(0,0)"/>
<path d="" fill="#E64D3E" transform="translate(0,0)"/>
<path d="" fill="#F8B82F" transform="translate(0,0)"/>
<path d="" fill="#EC4D3F" transform="translate(0,0)"/>
<path d="" fill="#E74E40" transform="translate(0,0)"/>
<path d="" fill="#E64D3D" transform="translate(0,0)"/>
<path d="" fill="#E9563F" transform="translate(0,0)"/>
<path d="" fill="#DC4C3D" transform="translate(0,0)"/>
<path d="" fill="#EB5340" transform="translate(0,0)"/>
<path d="" fill="#E9523F" transform="translate(0,0)"/>
<path d="" fill="#E94F3E" transform="translate(0,0)"/>
<path d="" fill="#DB4D3E" transform="translate(0,0)"/>
<path d="" fill="#ED5240" transform="translate(0,0)"/>
<path d="" fill="#EE5341" transform="translate(0,0)"/>
<path d="" fill="#ED503F" transform="translate(0,0)"/>
<path d="" fill="#EA603E" transform="translate(0,0)"/>
<path d="" fill="#F2A733" transform="translate(0,0)"/>
<path d="" fill="#ED6240" transform="translate(0,0)"/>
<path d="" fill="#EFAB31" transform="translate(0,0)"/>
<path d="" fill="#ED5141" transform="translate(0,0)"/>
<path d="" fill="#F3A435" transform="translate(0,0)"/>
<path d="" fill="#ED6441" transform="translate(0,0)"/>
<path d="" fill="#E8643E" transform="translate(0,0)"/>
<path d="" fill="#E8603E" transform="translate(0,0)"/>
<path d="" fill="#F9B135" transform="translate(0,0)"/>
<path d="" fill="#F35041" transform="translate(0,0)"/>
<path d="" fill="#F9B92E" transform="translate(0,0)"/>
<path d="" fill="#F7AD34" transform="translate(0,0)"/>
<path d="" fill="#ED503F" transform="translate(0,0)"/>
<path d="" fill="#ED4F40" transform="translate(0,0)"/>
<path d="" fill="#F27A40" transform="translate(0,0)"/>
<path d="" fill="#FCBB31" transform="translate(0,0)"/>
<path d="" fill="#FBAE35" transform="translate(0,0)"/>
<path d="" fill="#F3A537" transform="translate(0,0)"/>
<path d="" fill="#F5A437" transform="translate(0,0)"/>
<path d="" fill="#F3A337" transform="translate(0,0)"/>
<path d="" fill="#EBAA2C" transform="translate(0,0)"/>
</svg>
